<?xml version="1.0" encoding="utf-8"?>
<!-- Generator: Adobe Illustrator 25.0.0, SVG Export Plug-In . SVG Version: 6.00 Build 0)  -->
<svg version="1.1" id="Layer_1" xmlns="http://www.w3.org/2000/svg" xmlns:xlink="http://www.w3.org/1999/xlink" x="0px" y="0px"
	 viewBox="0 0 100 77.6" style="enable-background:new 0 0 100 77.6;" xml:space="preserve">
<style type="text/css">
	.st0{fill:#FFFFFF;}
	.st1{fill:#F26122;}
	.st2{fill:#EA1D25;}
	.st3{fill:#F69E1E;}
</style>
<g id="layer1" transform="matrix(3.3557321,0,0,3.3557321,-1551.7864,-1849.1059)">
	<g id="g13" transform="matrix(2.5579399,0,0,2.5579399,884.90115,-11.427398)">
		<g id="g15" transform="translate(-502.86126,-41.013507)">
			<path id="XMLID_1775_" class="st0" d="M339.8,269.9v-0.6c0-0.2-0.1-0.4-0.4-0.4c-0.1,0-0.3,0-0.3,0.2c-0.1-0.1-0.2-0.2-0.3-0.2
				c-0.1,0-0.2,0-0.3,0.1V269h-0.2v1h0.2v-0.5c0-0.2,0.1-0.3,0.2-0.3s0.2,0.1,0.2,0.3v0.5h0.2v-0.5c0-0.2,0.1-0.3,0.2-0.3
				c0.1,0,0.2,0.1,0.2,0.3v0.5H339.8z M342.9,269h-0.3v-0.3h-0.2v0.3h-0.2v0.2h0.2v0.4c0,0.2,0.1,0.4,0.3,0.4c0.1,0,0.2,0,0.3-0.1
				l-0.1-0.2c-0.1,0-0.1,0-0.2,0c-0.1,0-0.1-0.1-0.1-0.2v-0.4h0.3V269z M344.7,268.9c-0.1,0-0.2,0.1-0.3,0.1V269h-0.2v1h0.2v-0.5
				c0-0.2,0.1-0.3,0.2-0.3c0,0,0.1,0,0.1,0l0.1-0.2C344.8,268.9,344.8,268.9,344.7,268.9L344.7,268.9z M342,269
				c-0.1-0.1-0.2-0.1-0.4-0.1c-0.2,0-0.4,0.1-0.4,0.3c0,0.2,0.1,0.3,0.3,0.3l0.1,0c0.1,0,0.2,0,0.2,0.1c0,0.1-0.1,0.1-0.2,0.1
				s-0.3,0-0.3-0.1l-0.1,0.2c0.1,0.1,0.3,0.1,0.4,0.1c0.3,0,0.4-0.1,0.4-0.3c0-0.2-0.1-0.3-0.3-0.3l-0.1,0c-0.1,0-0.2,0-0.2-0.1
				c0-0.1,0.1-0.1,0.2-0.1c0.1,0,0.2,0,0.3,0.1L342,269L342,269z M347.6,268.9c-0.1,0-0.2,0.1-0.3,0.1V269h-0.2v1h0.2v-0.5
				c0-0.2,0.1-0.3,0.2-0.3c0,0,0.1,0,0.1,0l0.1-0.2C347.7,268.9,347.6,268.9,347.6,268.9L347.6,268.9z M344.9,269.4
				c0,0.3,0.2,0.5,0.5,0.5c0.1,0,0.2,0,0.3-0.1l-0.1-0.2c-0.1,0.1-0.2,0.1-0.3,0.1c-0.2,0-0.3-0.1-0.3-0.3c0-0.2,0.1-0.3,0.3-0.3
				c0.1,0,0.2,0,0.3,0.1l0.1-0.2c-0.1-0.1-0.2-0.1-0.3-0.1C345.1,268.9,344.9,269.1,344.9,269.4L344.9,269.4L344.9,269.4z
				 M346.9,269.4V269h-0.2v0.1c-0.1-0.1-0.2-0.1-0.3-0.1c-0.3,0-0.5,0.2-0.5,0.5s0.2,0.5,0.5,0.5c0.1,0,0.2,0,0.3-0.1v0.1h0.2V269.4
				L346.9,269.4z M346.1,269.4c0-0.2,0.1-0.3,0.3-0.3c0.2,0,0.3,0.1,0.3,0.3c0,0.2-0.1,0.3-0.3,0.3
				C346.2,269.7,346.1,269.6,346.1,269.4L346.1,269.4z M343.6,268.9c-0.3,0-0.5,0.2-0.5,0.5s0.2,0.5,0.5,0.5c0.1,0,0.3,0,0.4-0.1
				l-0.1-0.1c-0.1,0.1-0.2,0.1-0.3,0.1c-0.1,0-0.3-0.1-0.3-0.2h0.7c0,0,0,0,0-0.1C344,269.1,343.9,268.9,343.6,268.9L343.6,268.9
				L343.6,268.9z M343.6,269.1c0.1,0,0.2,0.1,0.2,0.2h-0.5C343.3,269.2,343.4,269.1,343.6,269.1L343.6,269.1z M348.8,269.4v-0.9
				h-0.2v0.5c-0.1-0.1-0.2-0.1-0.3-0.1c-0.3,0-0.5,0.2-0.5,0.5s0.2,0.5,0.5,0.5c0.1,0,0.2,0,0.3-0.1v0.1h0.2V269.4L348.8,269.4z
				 M348,269.4c0-0.2,0.1-0.3,0.3-0.3c0.2,0,0.3,0.1,0.3,0.3c0,0.2-0.1,0.3-0.3,0.3C348.1,269.7,348,269.6,348,269.4L348,269.4z
				 M341,269.4V269h-0.2v0.1c-0.1-0.1-0.2-0.1-0.3-0.1c-0.3,0-0.5,0.2-0.5,0.5s0.2,0.5,0.5,0.5c0.1,0,0.2,0,0.3-0.1v0.1h0.2V269.4
				L341,269.4z M340.2,269.4c0-0.2,0.1-0.3,0.3-0.3c0.2,0,0.3,0.1,0.3,0.3c0,0.2-0.1,0.3-0.3,0.3
				C340.3,269.7,340.2,269.6,340.2,269.4z"/>
		</g>
		<g id="XMLID_328_" transform="translate(-502.86126,-41.013507)">
			<rect id="rect19" x="342" y="261.7" class="st1" width="3.1" height="5.7"/>
			<path id="XMLID_330_" class="st2" d="M342.1,264.5c0-1.1,0.5-2.2,1.4-2.8c-0.6-0.5-1.4-0.8-2.2-0.8c-2,0-3.6,1.6-3.6,3.6
				c0,2,1.6,3.6,3.6,3.6c0.8,0,1.6-0.3,2.2-0.8C342.7,266.7,342.1,265.6,342.1,264.5z"/>
			<path id="path22" class="st3" d="M349.4,264.5c0,2-1.6,3.6-3.6,3.6c-0.8,0-1.6-0.3-2.2-0.8c0.8-0.7,1.4-1.7,1.4-2.8
				s-0.5-2.2-1.4-2.8c0.6-0.5,1.4-0.8,2.2-0.8C347.7,260.9,349.4,262.5,349.4,264.5z"/>
		</g>
	</g>
</g>
</svg>
