<?xml version="1.0" encoding="utf-8"?>
<!-- Generator: Adobe Illustrator 24.0.1, SVG Export Plug-In . SVG Version: 6.00 Build 0)  -->
<svg version="1.1" id="Layer_1" xmlns="http://www.w3.org/2000/svg" xmlns:xlink="http://www.w3.org/1999/xlink" x="0px" y="0px"
	 viewBox="0 0 100 22.35" style="enable-background:new 0 0 100 22.35;" xml:space="preserve">
<style type="text/css">
	.st0{fill:#232F67;}
	.st1{fill:#FFFFFF;}
</style>
<rect class="st0" width="100" height="22.35"/>
<rect x="0.78" y="0.56" class="st1" width="32.96" height="21.23"/>
<g>
	<path class="st0" d="M14.03,17.62h-2.05L6.72,9.24v8.38H4.66V5.81h2.05L12,14.22V5.81h2.04V17.62z"/>
	<path class="st0" d="M20.13,17.78c-1.25,0-2.26-0.39-3.04-1.18c-0.78-0.79-1.16-1.83-1.16-3.14v-0.24c0-0.88,0.17-1.66,0.51-2.35
		c0.34-0.69,0.81-1.23,1.42-1.61c0.61-0.38,1.29-0.58,2.04-0.58c1.19,0,2.12,0.38,2.77,1.14c0.65,0.76,0.98,1.84,0.98,3.24v0.79
		h-5.73c0.06,0.72,0.3,1.3,0.73,1.72c0.42,0.42,0.96,0.63,1.6,0.63c0.9,0,1.64-0.37,2.21-1.1l1.06,1.01
		c-0.35,0.52-0.82,0.93-1.41,1.22C21.52,17.64,20.86,17.78,20.13,17.78z M19.9,10.26c-0.54,0-0.98,0.19-1.31,0.57
		c-0.33,0.38-0.54,0.91-0.64,1.58h3.76v-0.15c-0.04-0.66-0.22-1.16-0.53-1.5C20.87,10.43,20.44,10.26,19.9,10.26z"/>
	<path class="st0" d="M27.65,6.71v2.13h1.55v1.46h-1.55v4.9c0,0.34,0.07,0.58,0.2,0.73c0.13,0.15,0.37,0.22,0.71,0.22
		c0.23,0,0.46-0.03,0.69-0.08v1.53c-0.45,0.12-0.88,0.19-1.3,0.19c-1.51,0-2.27-0.84-2.27-2.51V10.3h-1.44V8.85h1.44V6.71H27.65z"/>
</g>
<g>
	<path class="st1" d="M39.41,17.62V5.81h4.05c1.34,0,2.35,0.27,3.05,0.8c0.7,0.54,1.05,1.33,1.05,2.39c0,0.54-0.15,1.03-0.44,1.46
		c-0.29,0.43-0.72,0.77-1.28,1.01c0.64,0.17,1.13,0.5,1.48,0.98c0.35,0.48,0.52,1.05,0.52,1.72c0,1.11-0.36,1.96-1.07,2.55
		c-0.71,0.6-1.73,0.89-3.05,0.89H39.41z M41.47,10.78h2.01c0.64,0,1.14-0.14,1.5-0.43c0.36-0.29,0.54-0.7,0.54-1.23
		c0-0.58-0.17-1.01-0.5-1.27c-0.33-0.26-0.85-0.39-1.55-0.39h-2V10.78z M41.47,12.29v3.69h2.28c0.64,0,1.15-0.16,1.51-0.48
		c0.36-0.32,0.54-0.76,0.54-1.33c0-1.23-0.63-1.85-1.88-1.88H41.47z"/>
	<path class="st1" d="M54.45,17.62c-0.09-0.17-0.16-0.44-0.23-0.82c-0.63,0.65-1.4,0.98-2.3,0.98c-0.88,0-1.6-0.25-2.16-0.75
		c-0.56-0.5-0.84-1.12-0.84-1.87c0-0.94,0.35-1.65,1.04-2.15c0.69-0.5,1.69-0.75,2.98-0.75h1.21v-0.58c0-0.45-0.13-0.82-0.38-1.09
		c-0.25-0.27-0.64-0.41-1.16-0.41c-0.45,0-0.82,0.11-1.1,0.34c-0.29,0.22-0.43,0.51-0.43,0.86h-1.97c0-0.48,0.16-0.93,0.48-1.35
		c0.32-0.42,0.75-0.75,1.3-0.99c0.55-0.24,1.16-0.36,1.84-0.36c1.03,0,1.85,0.26,2.46,0.77c0.61,0.52,0.92,1.24,0.94,2.18v3.96
		c0,0.79,0.11,1.42,0.33,1.89v0.14H54.45z M52.28,16.2c0.39,0,0.76-0.09,1.1-0.28c0.34-0.19,0.6-0.44,0.77-0.76V13.5h-1.06
		c-0.73,0-1.28,0.13-1.65,0.38c-0.37,0.25-0.55,0.61-0.55,1.08c0,0.38,0.13,0.68,0.38,0.9C51.52,16.09,51.86,16.2,52.28,16.2z"/>
	<path class="st1" d="M59.52,8.84l0.06,1.01c0.65-0.78,1.5-1.18,2.56-1.18c1.83,0,2.76,1.05,2.79,3.14v5.8h-1.97v-5.69
		c0-0.56-0.12-0.97-0.36-1.24c-0.24-0.27-0.63-0.4-1.18-0.4c-0.79,0-1.39,0.36-1.78,1.08v6.25h-1.97V8.84H59.52z"/>
	<path class="st1" d="M69.28,13.86l-0.88,0.9v2.86h-1.97V5.16h1.97v7.19l0.62-0.77l2.43-2.73h2.37l-3.26,3.66l3.61,5.12h-2.28
		L69.28,13.86z"/>
	<path class="st1" d="M74.61,6.57c0-0.3,0.1-0.55,0.29-0.75c0.19-0.2,0.47-0.3,0.82-0.3c0.36,0,0.63,0.1,0.83,0.3
		c0.19,0.2,0.29,0.45,0.29,0.75c0,0.3-0.1,0.54-0.29,0.74c-0.19,0.2-0.47,0.3-0.83,0.3c-0.36,0-0.63-0.1-0.82-0.3
		C74.71,7.11,74.61,6.86,74.61,6.57z M76.7,17.62h-1.97V8.84h1.97V17.62z"/>
	<path class="st1" d="M80.18,8.84l0.06,1.01c0.65-0.78,1.5-1.18,2.56-1.18c1.83,0,2.76,1.05,2.79,3.14v5.8h-1.97v-5.69
		c0-0.56-0.12-0.97-0.36-1.24c-0.24-0.27-0.63-0.4-1.18-0.4c-0.79,0-1.39,0.36-1.78,1.08v6.25h-1.97V8.84H80.18z"/>
	<path class="st1" d="M86.74,13.17c0-1.36,0.32-2.45,0.96-3.26c0.64-0.81,1.49-1.22,2.55-1.22c1,0,1.79,0.35,2.36,1.05l0.09-0.88
		h1.78v8.51c0,1.15-0.36,2.06-1.07,2.73c-0.72,0.67-1.68,1-2.9,1c-0.64,0-1.27-0.13-1.89-0.4s-1.08-0.62-1.4-1.05l0.93-1.18
		c0.61,0.72,1.35,1.08,2.24,1.08c0.65,0,1.17-0.18,1.55-0.53c0.38-0.35,0.57-0.87,0.57-1.56v-0.59c-0.57,0.63-1.32,0.95-2.27,0.95
		c-1.03,0-1.87-0.41-2.52-1.22C87.07,15.74,86.74,14.61,86.74,13.17z M88.71,13.34c0,0.88,0.18,1.58,0.54,2.08
		c0.36,0.51,0.86,0.76,1.5,0.76c0.79,0,1.38-0.34,1.77-1.02v-3.86c-0.37-0.67-0.96-1-1.75-1c-0.65,0-1.15,0.26-1.51,0.77
		C88.89,11.58,88.71,12.34,88.71,13.34z"/>
</g>
</svg>
