<?xml version="1.0" encoding="utf-8"?>
<!-- Generator: Adobe Illustrator 24.0.1, SVG Export Plug-In . SVG Version: 6.00 Build 0)  -->
<svg version="1.1" id="Layer_1" xmlns="http://www.w3.org/2000/svg" xmlns:xlink="http://www.w3.org/1999/xlink" x="0px" y="0px"
	 viewBox="0 0 100 26.13" style="enable-background:new 0 0 100 26.13;" xml:space="preserve">
<style type="text/css">
	.st0{fill:#078C45;}
	.st1{fill:#F47A20;}
	.st2{fill:#28387E;}
</style>
<g id="layer1">
	<g id="g234" transform="matrix(0.35277777,0,0,-0.35277777,67.797845,1.4031532)">
		<path id="path236" class="st0" d="M75.38-1.47l15.9-31.57L57.86-64.63L75.38-1.47z"/>
	</g>
	<g id="g238" transform="matrix(0.35277777,0,0,-0.35277777,64.991459,1.4031532)">
		<path id="path240" class="st1" d="M72.33-1.47L88.2-33.04L54.8-64.63L72.33-1.47z"/>
	</g>
	<g id="g242" transform="matrix(0.35277777,0,0,-0.35277777,0.01611121,14.573442)">
		<path id="path244" class="st2" d="M1.58-15.81l15.85,57.12h25.35c7.92,0,13.21-1.25,15.9-3.84c2.67-2.56,3.19-6.75,1.58-12.63
			c-0.97-3.46-2.46-6.37-4.49-8.67c-2.02-2.3-4.68-4.12-7.96-5.46c2.78-0.67,4.55-2,5.34-3.99c0.79-1.99,0.7-4.89-0.26-8.7
			l-1.93-7.98l-0.01-0.22c-0.56-2.23-0.39-3.43,0.51-3.53l-0.58-2.11H33.75c0.06,1.34,0.16,2.55,0.28,3.55
			c0.12,1.03,0.28,1.83,0.43,2.38l1.6,5.7c0.81,2.97,0.86,5.04,0.11,6.23c-0.75,1.22-2.44,1.83-5.11,1.83h-7.21l-5.49-19.69H1.58z
			 M27.41,16.76h7.72c2.7,0,4.7,0.39,5.93,1.18c1.24,0.81,2.15,2.17,2.69,4.13c0.56,2,0.42,3.4-0.38,4.19
			c-0.8,0.81-2.71,1.2-5.72,1.2h-7.27L27.41,16.76z"/>
	</g>
	<g id="g246" transform="matrix(0.35277777,0,0,-0.35277777,26.966392,3.8309332)">
		<path id="path248" class="st2" d="M30.92-4.11L19.23-46.26H5.03l1.75,6.17c-2.5-2.46-5.06-4.32-7.64-5.51
			c-2.56-1.21-5.26-1.81-8.1-1.81c-2.35,0-4.37,0.43-5.99,1.27c-1.64,0.84-2.87,2.12-3.69,3.81c-0.73,1.48-1.05,3.31-0.92,5.49
			c0.13,2.15,0.89,5.77,2.3,10.85l6.06,21.87H4.33l-6.04-21.77c-0.88-3.19-1.09-5.43-0.66-6.65c0.45-1.23,1.65-1.87,3.59-1.87
			c1.96,0,3.6,0.71,4.96,2.16c1.38,1.43,2.44,3.57,3.24,6.42l5.99,21.71H30.92z"/>
	</g>
	<g id="g250" transform="matrix(0.35277777,0,0,-0.35277777,25.52981,14.573442)">
		<path id="path252" class="st2" d="M29.36-15.81L45.2,41.31h21.79c4.81,0,8.53-0.28,11.18-0.91c2.65-0.6,4.72-1.57,6.27-2.93
			c1.93-1.79,3.12-4,3.61-6.65c0.46-2.65,0.19-5.74-0.82-9.37c-1.77-6.38-4.88-11.28-9.32-14.7c-4.45-3.37-9.95-5.07-16.51-5.07
			H51.2l-4.84-17.49H29.36z M55.06,15.63h5.48c3.54,0,6.03,0.44,7.49,1.28c1.41,0.86,2.42,2.38,3.03,4.54
			c0.61,2.19,0.45,3.72-0.47,4.58c-0.89,0.85-3.16,1.28-6.8,1.28h-5.47L55.06,15.63z"/>
	</g>
	<g id="g254" transform="matrix(0.35277777,0,0,-0.35277777,44.934987,14.573442)">
		<path id="path256" class="st2" d="M50.49-15.81l0.16,4c-2.51-1.88-5.04-3.29-7.59-4.18c-2.54-0.9-5.24-1.36-8.14-1.36
			c-4.4,0-7.47,1.2-9.24,3.51c-1.75,2.32-2.04,5.65-0.84,9.89c1.14,4.19,3.18,7.28,6.12,9.25c2.92,2,7.8,3.42,14.64,4.34
			c0.87,0.14,2.03,0.25,3.49,0.43c5.06,0.59,7.9,1.93,8.51,4.13c0.32,1.2,0.12,2.09-0.62,2.64c-0.72,0.57-2.07,0.84-4.02,0.84
			c-1.62,0-2.91-0.33-3.98-1.03c-1.06-0.7-1.86-1.73-2.4-3.18H31.42c1.37,4.74,4.16,8.33,8.36,10.73c4.18,2.44,9.69,3.61,16.52,3.61
			c3.21,0,6.08-0.3,8.63-0.95c2.55-0.62,4.41-1.51,5.61-2.59c1.49-1.34,2.36-2.88,2.61-4.57c0.29-1.69-0.03-4.11-0.91-7.28
			l-6.52-23.5c-0.21-0.77-0.25-1.46-0.14-2.08c0.14-0.6,0.4-1.1,0.86-1.47l-0.35-1.19H50.49z M54.26,3.01
			c-1.65-0.66-3.79-1.3-6.46-2c-4.18-1.12-6.54-2.62-7.05-4.47c-0.35-1.19-0.21-2.11,0.37-2.81c0.57-0.66,1.57-1,2.98-1
			c2.58,0,4.65,0.65,6.19,1.94c1.55,1.3,2.7,3.35,3.51,6.17c0.14,0.6,0.27,1.03,0.35,1.36L54.26,3.01z"/>
	</g>
	<g id="g258" transform="matrix(0.35277777,0,0,-0.35277777,48.940953,18.806421)">
		<path id="path260" class="st2" d="M54.85-20.42L58.3-7.94h4.45c1.49,0,2.65,0.29,3.48,0.83c0.84,0.56,1.41,1.49,1.74,2.75
			c0.16,0.56,0.27,1.14,0.33,1.8c0.04,0.7,0.04,1.45,0,2.31l-2.37,38.59h15.72l-0.24-25.57l13.73,25.57h14.62L85.49-3.6
			c-2.75-4.69-4.76-7.91-6.03-9.67c-1.25-1.74-2.44-3.09-3.6-4c-1.5-1.26-3.17-2.16-4.97-2.68c-1.81-0.53-4.56-0.8-8.27-0.8
			c-1.07,0-2.29,0.02-3.62,0.09C57.69-20.61,56.28-20.53,54.85-20.42"/>
	</g>
</g>
</svg>
