<svg xmlns="http://www.w3.org/2000/svg" xmlns:xlink="http://www.w3.org/1999/xlink" id="Layer_1" x="0px" y="0px" viewBox="0 0 107.71 29.22" style="enable-background:new 0 0 107.71 29.22;" xml:space="preserve"><style type="text/css">	.st0{fill:#67696D;}	.st1{fill:#2A813F;}	.st2{fill:#E86724;}</style><g id="g22" transform="matrix(0.35277777,0,0,-0.35277777,-10.926321,61.158633)">	<g>		<g id="g24">			<g id="g126" transform="translate(316.4629,76.4951)">				<path id="path128" class="st0" d="M-49.85,14.42h-16.41l22.83,82.44h16.41L-49.85,14.42z"></path>			</g>			<g id="g130" transform="translate(306.4521,170.2881)">				<path id="path132" class="st0" d="M-48.36,0.47c-1.14,1.57-2.89,2.36-5.28,2.36h-90.26l-4.47-16.15h16.42v0.01h65.69     l-4.78-17.26h-65.69l0.01,0.04h-16.42l-13.63-49.19h16.43l9.14,33.02h73.84c2.31,0,4.48,0.79,6.52,2.36     c2.04,1.57,3.38,3.52,4.02,5.84l9.14,33.02C-47-3.09-47.23-1.1-48.36,0.47"></path>			</g>			<g id="g134" transform="translate(156.1196,82.541)">				<path id="path136" class="st0" d="M-25.99,13.52C-26.9,10.26-29.87,8-33.26,8h-84.69c-2.31,0-4.02,0.79-5.15,2.36     c-1.13,1.57-1.37,3.52-0.72,5.84l20.66,74.39h16.43l-18.46-66.44h65.72l18.46,66.44h16.43L-25.99,13.52z"></path>			</g>			<g id="g138" transform="translate(376.5859,173.1689)">				<path id="path140" class="st1" d="M-58.79,0.04l20.78-41.33L-81.7-82.61L-58.79,0.04z"></path>			</g>			<g id="g142" transform="translate(359.4717,173.1689)">				<path id="path144" class="st2" d="M-56.25,0.04l20.77-41.33l-43.7-41.32L-56.25,0.04z"></path>			</g>		</g>	</g></g></svg>