<svg xmlns="http://www.w3.org/2000/svg" xmlns:xlink="http://www.w3.org/1999/xlink" id="Layer_1" x="0px" y="0px" viewBox="0 0 100 32.36" style="enable-background:new 0 0 100 32.36;" xml:space="preserve"><style type="text/css">	.st0{fill:#0458A0;}	.st1{fill:#FAA71B;}</style><g id="g4158" transform="matrix(4.4299631,0,0,4.4299631,-81.165783,-105.04783)">	<polygon id="polygon9" class="st0" points="28.1,30.91 26.28,30.91 27.42,23.84 29.25,23.84  "></polygon>	<path id="path11" class="st0" d="M34.73,24.01c-0.36-0.14-0.93-0.3-1.64-0.3c-1.81,0-3.08,0.96-3.09,2.34  c-0.01,1.02,0.91,1.58,1.6,1.92c0.71,0.35,0.95,0.57,0.95,0.88c-0.01,0.47-0.57,0.69-1.1,0.69c-0.73,0-1.12-0.11-1.72-0.38  l-0.24-0.11l-0.26,1.59c0.43,0.2,1.22,0.37,2.04,0.38c1.92,0,3.17-0.95,3.18-2.42c0.01-0.81-0.48-1.42-1.53-1.93  c-0.64-0.32-1.03-0.54-1.03-0.87c0.01-0.3,0.33-0.61,1.05-0.61c0.59-0.02,1.03,0.13,1.36,0.27l0.17,0.08L34.73,24.01  C34.73,24.01,34.73,24.01,34.73,24.01z"></path>	<path id="path13" class="st0" d="M37.16,28.41c0.15-0.41,0.73-1.98,0.73-1.98c-0.01,0.02,0.15-0.41,0.24-0.68l0.13,0.61  c0,0,0.35,1.69,0.42,2.05C38.4,28.41,37.52,28.41,37.16,28.41L37.16,28.41z M39.42,23.84h-1.41c-0.44,0-0.77,0.13-0.96,0.59  l-2.72,6.49h1.92c0,0,0.32-0.87,0.38-1.06c0.21,0,2.08,0,2.35,0c0.05,0.25,0.22,1.06,0.22,1.06h1.69L39.42,23.84L39.42,23.84  L39.42,23.84z"></path>	<path id="path15" class="st0" d="M24.75,23.84l-1.79,4.82l-0.2-0.98c-0.33-1.13-1.37-2.35-2.53-2.96l1.64,6.18h1.93l2.87-7.06  L24.75,23.84L24.75,23.84L24.75,23.84z"></path>	<path id="path17" class="st1" d="M21.29,23.84h-2.94l-0.03,0.14c2.29,0.59,3.81,2,4.44,3.7l-0.64-3.25  C22.02,23.98,21.69,23.86,21.29,23.84L21.29,23.84z"></path></g></svg>